# Blender v2.67 (sub 0) OBJ File: 'cube.blend'
# www.blender.org
mtllib cube.mtl
o Cube
v 1.000000 -1.000000 -1.000000
v 1.000000 -1.000000 1.000000
v -1.000000 -1.000000 1.000000
v -1.000000 -1.000000 -1.000000
v 1.000000 1.000000 -0.999999
v 0.999999 1.000000 1.000001
v -1.000000 1.000000 1.000000
v -1.000000 1.000000 -1.000000
vt 0.491801 0.500000
vt 0.491802 0.725990
vt 0.258241 0.725990
vt 0.491800 0.274010
vt 0.258239 0.274011
vt 0.258238 0.048021
vt 0.725362 0.725990
vt 0.725362 0.951980
vt 0.491802 0.951980
vt 0.258241 0.951980
vt 0.024680 0.725991
vt 0.258240 0.500000
vt 0.491799 0.048020
vt 0.024681 0.951980
vn 0.000000 -1.000000 0.000000
vn -0.000000 1.000000 0.000000
vn 1.000000 -0.000000 0.000001
vn -0.000000 -0.000000 1.000000
vn -1.000000 -0.000000 -0.000000
vn 0.000000 0.000000 -1.000000
vn 1.000000 0.000000 -0.000000
usemtl Material
s off
f 1/1/1 2/2/1 3/3/1
f 5/4/2 8/5/2 7/6/2
f 1/7/3 5/8/3 6/9/3
f 2/2/4 6/9/4 3/3/4
f 3/3/5 7/10/5 4/11/5
f 5/4/6 1/1/6 4/12/6
f 4/12/1 1/1/1 3/3/1
f 6/13/2 5/4/2 7/6/2
f 2/2/7 1/7/7 6/9/7
f 6/9/4 7/10/4 3/3/4
f 7/10/5 8/14/5 4/11/5
f 8/5/6 5/4/6 4/12/6
